<?xml version="1.0" encoding="UTF-8" standalone="no"?>
<svg width="135px" height="34px" viewBox="0 0 135 34" version="1.1" xmlns="http://www.w3.org/2000/svg" xmlns:xlink="http://www.w3.org/1999/xlink">
    <defs>
        <linearGradient x1="50%" y1="0%" x2="50%" y2="100%" id="linearGradient-1">
            <stop stop-color="#F5515F" offset="0%"></stop>
            <stop stop-color="#9F031B" offset="100%"></stop>
        </linearGradient>
    </defs>
    <g id="Page-1" stroke="none" stroke-width="1" fill="none" fill-rule="evenodd">
        <path d="M1,1 L134,1 L134,8 L126,34 L122,14 L115,25 L110,16 L111,34 L95,16 L93,25 L76,18 L73,23 L70,19 L64,26 L62,17 L55,25 L52,18 L47,33 L43,16 L39,23 L34,15 L23,26 L24,14 L19,28 L12,15 L8,22 L1,1 Z" id="Path-2" stroke="#8F4242" fill="url(#linearGradient-1)"></path>
    </g>
</svg>