<?xml version="1.0" encoding="UTF-8" standalone="no"?>
<svg width="129px" height="39px" viewBox="0 0 129 39" version="1.1" xmlns="http://www.w3.org/2000/svg" xmlns:xlink="http://www.w3.org/1999/xlink">
    <defs>
        <linearGradient x1="50%" y1="0%" x2="50%" y2="100%" id="linearGradient-1">
            <stop stop-color="#1261D6" stop-opacity="0" offset="0%"></stop>
            <stop stop-color="#82CFE0" offset="100%"></stop>
        </linearGradient>
        <path id="path-2" d="M125.304255,16.5576172 C125.304255,16.5576172 124.165583,18.8798828 126.856989,14.0605469 C129.548396,9.24121094 125.380427,3.63964844 125.380427,3.63964844 C125.380427,3.63964844 126.465906,2.09168375 122.999998,1 C119.534091,-0.0916837541 116.999998,1 116.999998,1 L111.704646,1 L99.766169,2.81347656 C99.766169,2.81347656 91.9999984,1.00000001 84.9999984,1 C77.9999984,0.999999992 80.9230347,4.56177602 66.9999984,6.55078125 C53.0769621,8.53978648 36.9999993,7 29.9999993,8 C22.9999993,9 22.4008234,6.44921875 13.0000003,5 C3.5991772,3.55078125 -1.00000008,9 2.23784868,13.0996094 C5.47569744,17.1992188 7.7173407,16.5576172 7.7173407,16.5576172 C7.7173407,16.5576172 0.999999992,19.3296089 2.23784869,24 C3.47569739,28.6703911 7.7173407,30.4577599 9.59917664,30 C11.451403,29.5494427 2.23784869,32 7.7173407,36 C13.1968327,40 23.9999993,33.1054688 23.9999993,33.1054688 C23.9999993,33.1054688 17.9999974,36 29.9999993,38 C42.0000012,40 54.0000012,35 54.0000012,35 C54.0000012,35 83.9999974,28.4443359 94.9999974,33.1054688 C105.999997,37.7666016 109.999997,32 109.999997,32 C109.999997,32 131.999995,35 125.380427,28.4443359 C130.804444,22.9834196 125.304255,16.5576172 125.304255,16.5576172 Z"></path>
    </defs>
    <g id="Page-1" stroke="none" stroke-width="1" fill="none" fill-rule="evenodd">
        <g id="Path-1">
            <use stroke="#2A486C" fill="none" xlink:href="#path-2"></use>
            <use stroke="#979797" fill="url(#linearGradient-1)" fill-rule="evenodd" xlink:href="#path-2"></use>
        </g>
    </g>
</svg>