<?xml version="1.0" encoding="UTF-8" standalone="no"?>
<svg width="128px" height="40px" viewBox="0 0 128 40" version="1.1" xmlns="http://www.w3.org/2000/svg" xmlns:xlink="http://www.w3.org/1999/xlink">
    <defs>
        <radialGradient cx="50%" cy="0%" fx="50%" fy="0%" r="100%" id="radialGradient-1">
            <stop stop-color="#3EB5B6" offset="0%"></stop>
            <stop stop-color="#000000" offset="100%"></stop>
        </radialGradient>
    </defs>
    <g id="Page-1" stroke="none" stroke-width="1" fill="none" fill-rule="evenodd">
        <path d="M63.5278877,7.20019531 C37.524812,7.9509784 8.5991768,6.55078125 8.5991768,6.55078125 L1.23784868,13.0996094 L6.71734086,21.6318359 L12.1025395,25.4375 C12.1025395,25.4375 15.172419,26.2978516 16.9858956,27.9169922 C18.7993721,29.5361328 20.7271065,33.1054688 28.9360909,33.1054688 C37.1450752,33.1054688 32.4331612,35.3515625 38.6558174,32.1816406 C44.8784737,29.0117187 50.445311,32.0488281 50.445311,32.0488281 C50.445311,32.0488281 60.8427719,25.0830078 60.8427719,26.8857422 C60.8427719,28.6884766 67.5585961,32.0488281 67.5585961,32.0488281 L83.1689476,32.0488281 C98.7792992,32.0488281 91.7057286,35.8395858 95.0664086,36.5556641 C98.4270885,37.2717423 102.784112,41.8930649 104.320315,36.5556641 C105.856517,31.2182632 105.702614,33.1978654 105.955622,32.0488281 C106.20863,30.8997908 105.955622,29.1289062 105.955622,29.1289062 C105.955622,29.1289062 107.064021,28.4443359 108.573786,28.4443359 C110.083552,28.4443359 113.167536,25.4375 113.167536,25.4375 L116.282771,23.7011719 L120.689021,20.5751953 L121.970271,17.8603516 L124.304255,16.5576172 C124.304255,16.5576172 123.165583,18.8798828 125.856989,14.0605469 C128.548396,9.24121094 124.380427,3.63964844 124.380427,3.63964844 C124.380427,3.63964844 124.142146,4.97070312 122.415583,3.37890625 C120.689021,1.78710938 110.704646,1 110.704646,1 C110.704646,1 100.579646,4.62695313 98.766169,2.81347656 C96.9526924,1 94.4800362,6.18945312 88.2710518,3.59472656 C82.0620674,1 71.5435127,4.73339844 71.5435127,4.73339844 C71.5435127,4.73339844 89.5309635,6.44941222 63.5278877,7.20019531 Z" id="Path-1" stroke="#3E78C0" fill="url(#radialGradient-1)"></path>
    </g>
</svg>